<?xml version='1.0' encoding='UTF-8'?>
<!DOCTYPE svg PUBLIC "-//W3C//DTD SVG 1.0//EN" "http://www.w3.org/TR/2001/REC-SVG-20010904/DTD/svg10.dtd">
<svg viewBox="0 0 770 1225" xmlns="http://www.w3.org/2000/svg" xmlns:inkspace="http://www.inkscape.org/namespaces/inkscape" xmlns:xlink="http://www.w3.org/1999/xlink" width="770px" height="1225px">
  <defs id="defs_block">
    <filter height="1.504" id="filter_blur" inkspace:collect="always" width="1.1575" x="-0.07875" y="-0.252">
      <feGaussianBlur id="feGaussianBlur3780" inkspace:collect="always" stdDeviation="4.2" />
    </filter>
  </defs>
  <title>blockdiag</title>
  <desc>blockdiag {
    default_shape = roundedbox;
    default_fontsize = 10;
    node_width = 230;
    span_height = 15;
    span_width = 20;
    悪魔ほむら派閥 -- 悪魔ほむらは正しいよ（ほむら肯定派） -- まどかやさやかもなぎさも蘇って完璧な終幕だよ（ハッピーエンド派）;
    悪魔ほむら派閥 -- 悪魔ほむらは正しいよ（ほむら肯定派） -- 本当はみんなと仲良くしたいのに関係を断ち切ったほむらは可哀想だよ（使い魔本音派）;
    悪魔ほむら派閥 -- 悪魔ほむらは正しいよ（ほむら肯定派） -- 初めてほむらが本音を見せたから許してあげようよ（ほむら同情派）;
    悪魔ほむら派閥 -- 悪魔ほむらは正しいよ（ほむら肯定派） -- まどかの願いはほむらの想いを無視してたよ（ほむらの願い尊重派）;
    悪魔ほむら派閥 -- 悪魔ほむらは正しいよ（ほむら肯定派） -- 本編からしてこうなる事は自明だったよ（ほむら心情派）;
    悪魔ほむら派閥 -- QBが悪いんだよ（QB絶対悪派） -- あんな実験をしたから自業自得だよ（QBざまぁ派）;
    悪魔ほむら派閥 -- QBが悪いんだよ（QB絶対悪派） -- あのまま円環されたら後々まどかはQBのものになってたよ（悪魔妥当派）;
    悪魔ほむら派閥 -- QBが悪いんだよ（QB絶対悪派） -- QBに感情が生まれてまた逆襲してくるよ（続編待望派）;
    悪魔ほむら派閥 -- QBが悪いんだよ（QB絶対悪派） -- QBもいたぶられて喜んでるよ（ほむQ派）;
    悪魔ほむら派閥 -- 悪魔ほむらは間違ってるよ（ほむら否定派） -- 使い魔もいるしまどかは目覚めそうだし不安定な世界すぎるよ（バッドエンド派）;
    悪魔ほむら派閥 -- 悪魔ほむらは間違ってるよ（ほむら否定派） -- ほむら自身が幸せになってないよ（まどか視点派）;
    悪魔ほむら派閥 -- 悪魔ほむらは間違ってるよ（ほむら否定派） -- まどかの願いを否定してるよ（まどかの願い尊重派）;
    悪魔ほむら派閥 -- 悪魔ほむらは間違ってるよ（ほむら否定派） -- エゴだよそれは（アムロ派）;
    悪魔ほむら派閥 -- 悪魔ほむらは間違ってるよ（ほむら否定派） -- ほむらは気が狂ってるよ（ほむらヤンデレ派）;
    悪魔ほむら派閥 -- 悪魔ほむらは間違ってるよ（ほむら否定派） -- 唯一敵対しているさやかに倒して欲しいんだよ（さやほむ派）;
    悪魔ほむら派閥 -- 悪魔ほむらは可愛いよ（悪魔崇拝派） -- 全員救ったほむらは悪魔じゃなくて女神だよ（アルティメットほむら派）;
    悪魔ほむら派閥 -- 悪魔ほむらは可愛いよ（悪魔崇拝派） -- 記憶改竄とか凄いよ最強だよ（悪魔万能説派）;
    悪魔ほむら派閥 -- 悪魔ほむらは可愛いよ（悪魔崇拝派） -- 指先でつんつんされたいよ（QBちょっと変われ派）;
    悪魔ほむら派閥 -- 悪魔ほむらは可愛いよ（悪魔崇拝派） -- 悪魔ぶってるほむらちゃん可愛いよ（私って悪魔ね派）;
    悪魔ほむら派閥 -- 悪魔ほむらは可愛いよ（悪魔崇拝派） -- 毎回まどかを抱きしめたい口実を作りたかったんだよ（ほむまど派）;
    悪魔ほむら派閥 -- 悪魔ほむらは可愛いよ（悪魔崇拝派） -- 悪魔になってもまどかの前ではヘタレなんだよ（まどほむ派）;
    悪魔ほむら派閥 -- 愛よ（愛なら仕方ない派）;
  }</desc>
  <path d="M 31 21 L 245 21 A8,8 0 0 1 253 29 L 253 53 A8,8 0 0 1 245 61 L 31 61 A8,8 0 0 1 23 53 L 23 29 A8,8 0 0 1 31 21" fill="rgb(0,0,0)" stroke="rgb(0,0,0)" style="filter:url(#filter_blur);opacity:0.7;fill-opacity:1" />
  <path d="M 281 21 L 495 21 A8,8 0 0 1 503 29 L 503 53 A8,8 0 0 1 495 61 L 281 61 A8,8 0 0 1 273 53 L 273 29 A8,8 0 0 1 281 21" fill="rgb(0,0,0)" stroke="rgb(0,0,0)" style="filter:url(#filter_blur);opacity:0.7;fill-opacity:1" />
  <path d="M 281 296 L 495 296 A8,8 0 0 1 503 304 L 503 328 A8,8 0 0 1 495 336 L 281 336 A8,8 0 0 1 273 328 L 273 304 A8,8 0 0 1 281 296" fill="rgb(0,0,0)" stroke="rgb(0,0,0)" style="filter:url(#filter_blur);opacity:0.7;fill-opacity:1" />
  <path d="M 281 516 L 495 516 A8,8 0 0 1 503 524 L 503 548 A8,8 0 0 1 495 556 L 281 556 A8,8 0 0 1 273 548 L 273 524 A8,8 0 0 1 281 516" fill="rgb(0,0,0)" stroke="rgb(0,0,0)" style="filter:url(#filter_blur);opacity:0.7;fill-opacity:1" />
  <path d="M 281 846 L 495 846 A8,8 0 0 1 503 854 L 503 878 A8,8 0 0 1 495 886 L 281 886 A8,8 0 0 1 273 878 L 273 854 A8,8 0 0 1 281 846" fill="rgb(0,0,0)" stroke="rgb(0,0,0)" style="filter:url(#filter_blur);opacity:0.7;fill-opacity:1" />
  <path d="M 281 1176 L 495 1176 A8,8 0 0 1 503 1184 L 503 1208 A8,8 0 0 1 495 1216 L 281 1216 A8,8 0 0 1 273 1208 L 273 1184 A8,8 0 0 1 281 1176" fill="rgb(0,0,0)" stroke="rgb(0,0,0)" style="filter:url(#filter_blur);opacity:0.7;fill-opacity:1" />
  <path d="M 531 21 L 745 21 A8,8 0 0 1 753 29 L 753 53 A8,8 0 0 1 745 61 L 531 61 A8,8 0 0 1 523 53 L 523 29 A8,8 0 0 1 531 21" fill="rgb(0,0,0)" stroke="rgb(0,0,0)" style="filter:url(#filter_blur);opacity:0.7;fill-opacity:1" />
  <path d="M 531 76 L 745 76 A8,8 0 0 1 753 84 L 753 108 A8,8 0 0 1 745 116 L 531 116 A8,8 0 0 1 523 108 L 523 84 A8,8 0 0 1 531 76" fill="rgb(0,0,0)" stroke="rgb(0,0,0)" style="filter:url(#filter_blur);opacity:0.7;fill-opacity:1" />
  <path d="M 531 131 L 745 131 A8,8 0 0 1 753 139 L 753 163 A8,8 0 0 1 745 171 L 531 171 A8,8 0 0 1 523 163 L 523 139 A8,8 0 0 1 531 131" fill="rgb(0,0,0)" stroke="rgb(0,0,0)" style="filter:url(#filter_blur);opacity:0.7;fill-opacity:1" />
  <path d="M 531 186 L 745 186 A8,8 0 0 1 753 194 L 753 218 A8,8 0 0 1 745 226 L 531 226 A8,8 0 0 1 523 218 L 523 194 A8,8 0 0 1 531 186" fill="rgb(0,0,0)" stroke="rgb(0,0,0)" style="filter:url(#filter_blur);opacity:0.7;fill-opacity:1" />
  <path d="M 531 241 L 745 241 A8,8 0 0 1 753 249 L 753 273 A8,8 0 0 1 745 281 L 531 281 A8,8 0 0 1 523 273 L 523 249 A8,8 0 0 1 531 241" fill="rgb(0,0,0)" stroke="rgb(0,0,0)" style="filter:url(#filter_blur);opacity:0.7;fill-opacity:1" />
  <path d="M 531 296 L 745 296 A8,8 0 0 1 753 304 L 753 328 A8,8 0 0 1 745 336 L 531 336 A8,8 0 0 1 523 328 L 523 304 A8,8 0 0 1 531 296" fill="rgb(0,0,0)" stroke="rgb(0,0,0)" style="filter:url(#filter_blur);opacity:0.7;fill-opacity:1" />
  <path d="M 531 351 L 745 351 A8,8 0 0 1 753 359 L 753 383 A8,8 0 0 1 745 391 L 531 391 A8,8 0 0 1 523 383 L 523 359 A8,8 0 0 1 531 351" fill="rgb(0,0,0)" stroke="rgb(0,0,0)" style="filter:url(#filter_blur);opacity:0.7;fill-opacity:1" />
  <path d="M 531 406 L 745 406 A8,8 0 0 1 753 414 L 753 438 A8,8 0 0 1 745 446 L 531 446 A8,8 0 0 1 523 438 L 523 414 A8,8 0 0 1 531 406" fill="rgb(0,0,0)" stroke="rgb(0,0,0)" style="filter:url(#filter_blur);opacity:0.7;fill-opacity:1" />
  <path d="M 531 461 L 745 461 A8,8 0 0 1 753 469 L 753 493 A8,8 0 0 1 745 501 L 531 501 A8,8 0 0 1 523 493 L 523 469 A8,8 0 0 1 531 461" fill="rgb(0,0,0)" stroke="rgb(0,0,0)" style="filter:url(#filter_blur);opacity:0.7;fill-opacity:1" />
  <path d="M 531 516 L 745 516 A8,8 0 0 1 753 524 L 753 548 A8,8 0 0 1 745 556 L 531 556 A8,8 0 0 1 523 548 L 523 524 A8,8 0 0 1 531 516" fill="rgb(0,0,0)" stroke="rgb(0,0,0)" style="filter:url(#filter_blur);opacity:0.7;fill-opacity:1" />
  <path d="M 531 571 L 745 571 A8,8 0 0 1 753 579 L 753 603 A8,8 0 0 1 745 611 L 531 611 A8,8 0 0 1 523 603 L 523 579 A8,8 0 0 1 531 571" fill="rgb(0,0,0)" stroke="rgb(0,0,0)" style="filter:url(#filter_blur);opacity:0.7;fill-opacity:1" />
  <path d="M 531 626 L 745 626 A8,8 0 0 1 753 634 L 753 658 A8,8 0 0 1 745 666 L 531 666 A8,8 0 0 1 523 658 L 523 634 A8,8 0 0 1 531 626" fill="rgb(0,0,0)" stroke="rgb(0,0,0)" style="filter:url(#filter_blur);opacity:0.7;fill-opacity:1" />
  <path d="M 531 681 L 745 681 A8,8 0 0 1 753 689 L 753 713 A8,8 0 0 1 745 721 L 531 721 A8,8 0 0 1 523 713 L 523 689 A8,8 0 0 1 531 681" fill="rgb(0,0,0)" stroke="rgb(0,0,0)" style="filter:url(#filter_blur);opacity:0.7;fill-opacity:1" />
  <path d="M 531 736 L 745 736 A8,8 0 0 1 753 744 L 753 768 A8,8 0 0 1 745 776 L 531 776 A8,8 0 0 1 523 768 L 523 744 A8,8 0 0 1 531 736" fill="rgb(0,0,0)" stroke="rgb(0,0,0)" style="filter:url(#filter_blur);opacity:0.7;fill-opacity:1" />
  <path d="M 531 791 L 745 791 A8,8 0 0 1 753 799 L 753 823 A8,8 0 0 1 745 831 L 531 831 A8,8 0 0 1 523 823 L 523 799 A8,8 0 0 1 531 791" fill="rgb(0,0,0)" stroke="rgb(0,0,0)" style="filter:url(#filter_blur);opacity:0.7;fill-opacity:1" />
  <path d="M 531 846 L 745 846 A8,8 0 0 1 753 854 L 753 878 A8,8 0 0 1 745 886 L 531 886 A8,8 0 0 1 523 878 L 523 854 A8,8 0 0 1 531 846" fill="rgb(0,0,0)" stroke="rgb(0,0,0)" style="filter:url(#filter_blur);opacity:0.7;fill-opacity:1" />
  <path d="M 531 901 L 745 901 A8,8 0 0 1 753 909 L 753 933 A8,8 0 0 1 745 941 L 531 941 A8,8 0 0 1 523 933 L 523 909 A8,8 0 0 1 531 901" fill="rgb(0,0,0)" stroke="rgb(0,0,0)" style="filter:url(#filter_blur);opacity:0.7;fill-opacity:1" />
  <path d="M 531 956 L 745 956 A8,8 0 0 1 753 964 L 753 988 A8,8 0 0 1 745 996 L 531 996 A8,8 0 0 1 523 988 L 523 964 A8,8 0 0 1 531 956" fill="rgb(0,0,0)" stroke="rgb(0,0,0)" style="filter:url(#filter_blur);opacity:0.7;fill-opacity:1" />
  <path d="M 531 1011 L 745 1011 A8,8 0 0 1 753 1019 L 753 1043 A8,8 0 0 1 745 1051 L 531 1051 A8,8 0 0 1 523 1043 L 523 1019 A8,8 0 0 1 531 1011" fill="rgb(0,0,0)" stroke="rgb(0,0,0)" style="filter:url(#filter_blur);opacity:0.7;fill-opacity:1" />
  <path d="M 531 1066 L 745 1066 A8,8 0 0 1 753 1074 L 753 1098 A8,8 0 0 1 745 1106 L 531 1106 A8,8 0 0 1 523 1098 L 523 1074 A8,8 0 0 1 531 1066" fill="rgb(0,0,0)" stroke="rgb(0,0,0)" style="filter:url(#filter_blur);opacity:0.7;fill-opacity:1" />
  <path d="M 531 1121 L 745 1121 A8,8 0 0 1 753 1129 L 753 1153 A8,8 0 0 1 745 1161 L 531 1161 A8,8 0 0 1 523 1153 L 523 1129 A8,8 0 0 1 531 1121" fill="rgb(0,0,0)" stroke="rgb(0,0,0)" style="filter:url(#filter_blur);opacity:0.7;fill-opacity:1" />
  <path d="M 28 15 L 242 15 A8,8 0 0 1 250 23 L 250 47 A8,8 0 0 1 242 55 L 28 55 A8,8 0 0 1 20 47 L 20 23 A8,8 0 0 1 28 15" fill="rgb(255,255,255)" stroke="rgb(0,0,0)" />
  <text fill="rgb(0,0,0)" font-family="sans-serif" font-size="10" font-style="normal" font-weight="normal" text-anchor="middle" textLength="70" x="135.0" y="40">悪魔ほむら派閥</text>
  <path d="M 278 15 L 492 15 A8,8 0 0 1 500 23 L 500 47 A8,8 0 0 1 492 55 L 278 55 A8,8 0 0 1 270 47 L 270 23 A8,8 0 0 1 278 15" fill="rgb(255,255,255)" stroke="rgb(0,0,0)" />
  <text fill="rgb(0,0,0)" font-family="sans-serif" font-size="10" font-style="normal" font-weight="normal" text-anchor="middle" textLength="180" x="385.0" y="40">悪魔ほむらは正しいよ（ほむら肯定派）</text>
  <path d="M 278 290 L 492 290 A8,8 0 0 1 500 298 L 500 322 A8,8 0 0 1 492 330 L 278 330 A8,8 0 0 1 270 322 L 270 298 A8,8 0 0 1 278 290" fill="rgb(255,255,255)" stroke="rgb(0,0,0)" />
  <text fill="rgb(0,0,0)" font-family="sans-serif" font-size="10" font-style="normal" font-weight="normal" text-anchor="middle" textLength="142" x="385.0" y="315">QBが悪いんだよ（QB絶対悪派）</text>
  <path d="M 278 510 L 492 510 A8,8 0 0 1 500 518 L 500 542 A8,8 0 0 1 492 550 L 278 550 A8,8 0 0 1 270 542 L 270 518 A8,8 0 0 1 278 510" fill="rgb(255,255,255)" stroke="rgb(0,0,0)" />
  <text fill="rgb(0,0,0)" font-family="sans-serif" font-size="10" font-style="normal" font-weight="normal" text-anchor="middle" textLength="200" x="385.0" y="535">悪魔ほむらは間違ってるよ（ほむら否定派）</text>
  <path d="M 278 840 L 492 840 A8,8 0 0 1 500 848 L 500 872 A8,8 0 0 1 492 880 L 278 880 A8,8 0 0 1 270 872 L 270 848 A8,8 0 0 1 278 840" fill="rgb(255,255,255)" stroke="rgb(0,0,0)" />
  <text fill="rgb(0,0,0)" font-family="sans-serif" font-size="10" font-style="normal" font-weight="normal" text-anchor="middle" textLength="170" x="385.0" y="865">悪魔ほむらは可愛いよ（悪魔崇拝派）</text>
  <path d="M 278 1170 L 492 1170 A8,8 0 0 1 500 1178 L 500 1202 A8,8 0 0 1 492 1210 L 278 1210 A8,8 0 0 1 270 1202 L 270 1178 A8,8 0 0 1 278 1170" fill="rgb(255,255,255)" stroke="rgb(0,0,0)" />
  <text fill="rgb(0,0,0)" font-family="sans-serif" font-size="10" font-style="normal" font-weight="normal" text-anchor="middle" textLength="120" x="385.0" y="1195">愛よ（愛なら仕方ない派）</text>
  <path d="M 528 15 L 742 15 A8,8 0 0 1 750 23 L 750 47 A8,8 0 0 1 742 55 L 528 55 A8,8 0 0 1 520 47 L 520 23 A8,8 0 0 1 528 15" fill="rgb(255,255,255)" stroke="rgb(0,0,0)" />
  <text fill="rgb(0,0,0)" font-family="sans-serif" font-size="10" font-style="normal" font-weight="normal" text-anchor="middle" textLength="230" x="635.0" y="34">まどかやさやかもなぎさも蘇って完璧な終幕だよ（</text>
  <text fill="rgb(0,0,0)" font-family="sans-serif" font-size="10" font-style="normal" font-weight="normal" text-anchor="middle" textLength="90" x="635.0" y="46">ハッピーエンド派）</text>
  <path d="M 528 70 L 742 70 A8,8 0 0 1 750 78 L 750 102 A8,8 0 0 1 742 110 L 528 110 A8,8 0 0 1 520 102 L 520 78 A8,8 0 0 1 528 70" fill="rgb(255,255,255)" stroke="rgb(0,0,0)" />
  <text fill="rgb(0,0,0)" font-family="sans-serif" font-size="10" font-style="normal" font-weight="normal" text-anchor="middle" textLength="230" x="635.0" y="89">本当はみんなと仲良くしたいのに関係を断ち切った</text>
  <text fill="rgb(0,0,0)" font-family="sans-serif" font-size="10" font-style="normal" font-weight="normal" text-anchor="middle" textLength="170" x="635.0" y="101">ほむらは可哀想だよ（使い魔本音派）</text>
  <path d="M 528 125 L 742 125 A8,8 0 0 1 750 133 L 750 157 A8,8 0 0 1 742 165 L 528 165 A8,8 0 0 1 520 157 L 520 133 A8,8 0 0 1 528 125" fill="rgb(255,255,255)" stroke="rgb(0,0,0)" />
  <text fill="rgb(0,0,0)" font-family="sans-serif" font-size="10" font-style="normal" font-weight="normal" text-anchor="middle" textLength="230" x="635.0" y="144">初めてほむらが本音を見せたから許してあげようよ</text>
  <text fill="rgb(0,0,0)" font-family="sans-serif" font-size="10" font-style="normal" font-weight="normal" text-anchor="middle" textLength="80" x="635.0" y="156">（ほむら同情派）</text>
  <path d="M 528 180 L 742 180 A8,8 0 0 1 750 188 L 750 212 A8,8 0 0 1 742 220 L 528 220 A8,8 0 0 1 520 212 L 520 188 A8,8 0 0 1 528 180" fill="rgb(255,255,255)" stroke="rgb(0,0,0)" />
  <text fill="rgb(0,0,0)" font-family="sans-serif" font-size="10" font-style="normal" font-weight="normal" text-anchor="middle" textLength="230" x="635.0" y="199">まどかの願いはほむらの想いを無視してたよ（ほむ</text>
  <text fill="rgb(0,0,0)" font-family="sans-serif" font-size="10" font-style="normal" font-weight="normal" text-anchor="middle" textLength="80" x="635.0" y="211">らの願い尊重派）</text>
  <path d="M 528 235 L 742 235 A8,8 0 0 1 750 243 L 750 267 A8,8 0 0 1 742 275 L 528 275 A8,8 0 0 1 520 267 L 520 243 A8,8 0 0 1 528 235" fill="rgb(255,255,255)" stroke="rgb(0,0,0)" />
  <text fill="rgb(0,0,0)" font-family="sans-serif" font-size="10" font-style="normal" font-weight="normal" text-anchor="middle" textLength="230" x="635.0" y="254">本編からしてこうなる事は自明だったよ（ほむら心</text>
  <text fill="rgb(0,0,0)" font-family="sans-serif" font-size="10" font-style="normal" font-weight="normal" text-anchor="middle" textLength="30" x="635.0" y="266">情派）</text>
  <path d="M 528 290 L 742 290 A8,8 0 0 1 750 298 L 750 322 A8,8 0 0 1 742 330 L 528 330 A8,8 0 0 1 520 322 L 520 298 A8,8 0 0 1 528 290" fill="rgb(255,255,255)" stroke="rgb(0,0,0)" />
  <text fill="rgb(0,0,0)" font-family="sans-serif" font-size="10" font-style="normal" font-weight="normal" text-anchor="middle" textLength="221" x="635.5" y="309">あんな実験をしたから自業自得だよ（QBざまぁ派</text>
  <text fill="rgb(0,0,0)" font-family="sans-serif" font-size="10" font-style="normal" font-weight="normal" text-anchor="middle" textLength="10" x="635.0" y="321">）</text>
  <path d="M 528 345 L 742 345 A8,8 0 0 1 750 353 L 750 377 A8,8 0 0 1 742 385 L 528 385 A8,8 0 0 1 520 377 L 520 353 A8,8 0 0 1 528 345" fill="rgb(255,255,255)" stroke="rgb(0,0,0)" />
  <text fill="rgb(0,0,0)" font-family="sans-serif" font-size="10" font-style="normal" font-weight="normal" text-anchor="middle" textLength="221" x="635.5" y="364">あのまま円環されたら後々まどかはQBのものにな</text>
  <text fill="rgb(0,0,0)" font-family="sans-serif" font-size="10" font-style="normal" font-weight="normal" text-anchor="middle" textLength="110" x="635.0" y="376">ってたよ（悪魔妥当派）</text>
  <path d="M 528 400 L 742 400 A8,8 0 0 1 750 408 L 750 432 A8,8 0 0 1 742 440 L 528 440 A8,8 0 0 1 520 432 L 520 408 A8,8 0 0 1 528 400" fill="rgb(255,255,255)" stroke="rgb(0,0,0)" />
  <text fill="rgb(0,0,0)" font-family="sans-serif" font-size="10" font-style="normal" font-weight="normal" text-anchor="middle" textLength="221" x="635.5" y="419">QBに感情が生まれてまた逆襲してくるよ（続編待</text>
  <text fill="rgb(0,0,0)" font-family="sans-serif" font-size="10" font-style="normal" font-weight="normal" text-anchor="middle" textLength="30" x="635.0" y="431">望派）</text>
  <path d="M 528 455 L 742 455 A8,8 0 0 1 750 463 L 750 487 A8,8 0 0 1 742 495 L 528 495 A8,8 0 0 1 520 487 L 520 463 A8,8 0 0 1 528 455" fill="rgb(255,255,255)" stroke="rgb(0,0,0)" />
  <text fill="rgb(0,0,0)" font-family="sans-serif" font-size="10" font-style="normal" font-weight="normal" text-anchor="middle" textLength="187" x="635.5" y="480">QBもいたぶられて喜んでるよ（ほむQ派）</text>
  <path d="M 528 510 L 742 510 A8,8 0 0 1 750 518 L 750 542 A8,8 0 0 1 742 550 L 528 550 A8,8 0 0 1 520 542 L 520 518 A8,8 0 0 1 528 510" fill="rgb(255,255,255)" stroke="rgb(0,0,0)" />
  <text fill="rgb(0,0,0)" font-family="sans-serif" font-size="10" font-style="normal" font-weight="normal" text-anchor="middle" textLength="230" x="635.0" y="529">使い魔もいるしまどかは目覚めそうだし不安定な世</text>
  <text fill="rgb(0,0,0)" font-family="sans-serif" font-size="10" font-style="normal" font-weight="normal" text-anchor="middle" textLength="140" x="635.0" y="541">界すぎるよ（バッドエンド派）</text>
  <path d="M 528 565 L 742 565 A8,8 0 0 1 750 573 L 750 597 A8,8 0 0 1 742 605 L 528 605 A8,8 0 0 1 520 597 L 520 573 A8,8 0 0 1 528 565" fill="rgb(255,255,255)" stroke="rgb(0,0,0)" />
  <text fill="rgb(0,0,0)" font-family="sans-serif" font-size="10" font-style="normal" font-weight="normal" text-anchor="middle" textLength="230" x="635.0" y="590">ほむら自身が幸せになってないよ（まどか視点派）</text>
  <path d="M 528 620 L 742 620 A8,8 0 0 1 750 628 L 750 652 A8,8 0 0 1 742 660 L 528 660 A8,8 0 0 1 520 652 L 520 628 A8,8 0 0 1 528 620" fill="rgb(255,255,255)" stroke="rgb(0,0,0)" />
  <text fill="rgb(0,0,0)" font-family="sans-serif" font-size="10" font-style="normal" font-weight="normal" text-anchor="middle" textLength="230" x="635.0" y="639">まどかの願いを否定してるよ（まどかの願い尊重派</text>
  <text fill="rgb(0,0,0)" font-family="sans-serif" font-size="10" font-style="normal" font-weight="normal" text-anchor="middle" textLength="10" x="635.0" y="651">）</text>
  <path d="M 528 675 L 742 675 A8,8 0 0 1 750 683 L 750 707 A8,8 0 0 1 742 715 L 528 715 A8,8 0 0 1 520 707 L 520 683 A8,8 0 0 1 528 675" fill="rgb(255,255,255)" stroke="rgb(0,0,0)" />
  <text fill="rgb(0,0,0)" font-family="sans-serif" font-size="10" font-style="normal" font-weight="normal" text-anchor="middle" textLength="130" x="635.0" y="700">エゴだよそれは（アムロ派）</text>
  <path d="M 528 730 L 742 730 A8,8 0 0 1 750 738 L 750 762 A8,8 0 0 1 742 770 L 528 770 A8,8 0 0 1 520 762 L 520 738 A8,8 0 0 1 528 730" fill="rgb(255,255,255)" stroke="rgb(0,0,0)" />
  <text fill="rgb(0,0,0)" font-family="sans-serif" font-size="10" font-style="normal" font-weight="normal" text-anchor="middle" textLength="210" x="635.0" y="755">ほむらは気が狂ってるよ（ほむらヤンデレ派）</text>
  <path d="M 528 785 L 742 785 A8,8 0 0 1 750 793 L 750 817 A8,8 0 0 1 742 825 L 528 825 A8,8 0 0 1 520 817 L 520 793 A8,8 0 0 1 528 785" fill="rgb(255,255,255)" stroke="rgb(0,0,0)" />
  <text fill="rgb(0,0,0)" font-family="sans-serif" font-size="10" font-style="normal" font-weight="normal" text-anchor="middle" textLength="230" x="635.0" y="804">唯一敵対しているさやかに倒して欲しいんだよ（さ</text>
  <text fill="rgb(0,0,0)" font-family="sans-serif" font-size="10" font-style="normal" font-weight="normal" text-anchor="middle" textLength="50" x="635.0" y="816">やほむ派）</text>
  <path d="M 528 840 L 742 840 A8,8 0 0 1 750 848 L 750 872 A8,8 0 0 1 742 880 L 528 880 A8,8 0 0 1 520 872 L 520 848 A8,8 0 0 1 528 840" fill="rgb(255,255,255)" stroke="rgb(0,0,0)" />
  <text fill="rgb(0,0,0)" font-family="sans-serif" font-size="10" font-style="normal" font-weight="normal" text-anchor="middle" textLength="230" x="635.0" y="859">全員救ったほむらは悪魔じゃなくて女神だよ（アル</text>
  <text fill="rgb(0,0,0)" font-family="sans-serif" font-size="10" font-style="normal" font-weight="normal" text-anchor="middle" textLength="100" x="635.0" y="871">ティメットほむら派）</text>
  <path d="M 528 895 L 742 895 A8,8 0 0 1 750 903 L 750 927 A8,8 0 0 1 742 935 L 528 935 A8,8 0 0 1 520 927 L 520 903 A8,8 0 0 1 528 895" fill="rgb(255,255,255)" stroke="rgb(0,0,0)" />
  <text fill="rgb(0,0,0)" font-family="sans-serif" font-size="10" font-style="normal" font-weight="normal" text-anchor="middle" textLength="210" x="635.0" y="920">記憶改竄とか凄いよ最強だよ（悪魔万能説派）</text>
  <path d="M 528 950 L 742 950 A8,8 0 0 1 750 958 L 750 982 A8,8 0 0 1 742 990 L 528 990 A8,8 0 0 1 520 982 L 520 958 A8,8 0 0 1 528 950" fill="rgb(255,255,255)" stroke="rgb(0,0,0)" />
  <text fill="rgb(0,0,0)" font-family="sans-serif" font-size="10" font-style="normal" font-weight="normal" text-anchor="middle" textLength="221" x="635.5" y="969">指先でつんつんされたいよ（QBちょっと変われ派</text>
  <text fill="rgb(0,0,0)" font-family="sans-serif" font-size="10" font-style="normal" font-weight="normal" text-anchor="middle" textLength="10" x="635.0" y="981">）</text>
  <path d="M 528 1005 L 742 1005 A8,8 0 0 1 750 1013 L 750 1037 A8,8 0 0 1 742 1045 L 528 1045 A8,8 0 0 1 520 1037 L 520 1013 A8,8 0 0 1 528 1005" fill="rgb(255,255,255)" stroke="rgb(0,0,0)" />
  <text fill="rgb(0,0,0)" font-family="sans-serif" font-size="10" font-style="normal" font-weight="normal" text-anchor="middle" textLength="230" x="635.0" y="1024">悪魔ぶってるほむらちゃん可愛いよ（私って悪魔ね</text>
  <text fill="rgb(0,0,0)" font-family="sans-serif" font-size="10" font-style="normal" font-weight="normal" text-anchor="middle" textLength="20" x="635.0" y="1036">派）</text>
  <path d="M 528 1060 L 742 1060 A8,8 0 0 1 750 1068 L 750 1092 A8,8 0 0 1 742 1100 L 528 1100 A8,8 0 0 1 520 1092 L 520 1068 A8,8 0 0 1 528 1060" fill="rgb(255,255,255)" stroke="rgb(0,0,0)" />
  <text fill="rgb(0,0,0)" font-family="sans-serif" font-size="10" font-style="normal" font-weight="normal" text-anchor="middle" textLength="230" x="635.0" y="1079">毎回まどかを抱きしめたい口実を作りたかったんだ</text>
  <text fill="rgb(0,0,0)" font-family="sans-serif" font-size="10" font-style="normal" font-weight="normal" text-anchor="middle" textLength="80" x="635.0" y="1091">よ（ほむまど派）</text>
  <path d="M 528 1115 L 742 1115 A8,8 0 0 1 750 1123 L 750 1147 A8,8 0 0 1 742 1155 L 528 1155 A8,8 0 0 1 520 1147 L 520 1123 A8,8 0 0 1 528 1115" fill="rgb(255,255,255)" stroke="rgb(0,0,0)" />
  <text fill="rgb(0,0,0)" font-family="sans-serif" font-size="10" font-style="normal" font-weight="normal" text-anchor="middle" textLength="230" x="635.0" y="1134">悪魔になってもまどかの前ではヘタレなんだよ（ま</text>
  <text fill="rgb(0,0,0)" font-family="sans-serif" font-size="10" font-style="normal" font-weight="normal" text-anchor="middle" textLength="50" x="635.0" y="1146">どほむ派）</text>
  <path d="M 250 35 L 270 35" fill="none" stroke="rgb(0,0,0)" />
  <path d="M 250 35 L 260 35" fill="none" stroke="rgb(0,0,0)" />
  <path d="M 260 35 L 260 310" fill="none" stroke="rgb(0,0,0)" />
  <path d="M 260 310 L 270 310" fill="none" stroke="rgb(0,0,0)" />
  <path d="M 250 35 L 260 35" fill="none" stroke="rgb(0,0,0)" />
  <path d="M 260 35 L 260 530" fill="none" stroke="rgb(0,0,0)" />
  <path d="M 260 530 L 270 530" fill="none" stroke="rgb(0,0,0)" />
  <path d="M 250 35 L 260 35" fill="none" stroke="rgb(0,0,0)" />
  <path d="M 260 35 L 260 860" fill="none" stroke="rgb(0,0,0)" />
  <path d="M 260 860 L 270 860" fill="none" stroke="rgb(0,0,0)" />
  <path d="M 250 35 L 260 35" fill="none" stroke="rgb(0,0,0)" />
  <path d="M 260 35 L 260 1190" fill="none" stroke="rgb(0,0,0)" />
  <path d="M 260 1190 L 270 1190" fill="none" stroke="rgb(0,0,0)" />
  <path d="M 500 35 L 520 35" fill="none" stroke="rgb(0,0,0)" />
  <path d="M 500 35 L 510 35" fill="none" stroke="rgb(0,0,0)" />
  <path d="M 510 35 L 510 90" fill="none" stroke="rgb(0,0,0)" />
  <path d="M 510 90 L 520 90" fill="none" stroke="rgb(0,0,0)" />
  <path d="M 500 35 L 510 35" fill="none" stroke="rgb(0,0,0)" />
  <path d="M 510 35 L 510 145" fill="none" stroke="rgb(0,0,0)" />
  <path d="M 510 145 L 520 145" fill="none" stroke="rgb(0,0,0)" />
  <path d="M 500 35 L 510 35" fill="none" stroke="rgb(0,0,0)" />
  <path d="M 510 35 L 510 200" fill="none" stroke="rgb(0,0,0)" />
  <path d="M 510 200 L 520 200" fill="none" stroke="rgb(0,0,0)" />
  <path d="M 500 35 L 510 35" fill="none" stroke="rgb(0,0,0)" />
  <path d="M 510 35 L 510 255" fill="none" stroke="rgb(0,0,0)" />
  <path d="M 510 255 L 520 255" fill="none" stroke="rgb(0,0,0)" />
  <path d="M 500 310 L 520 310" fill="none" stroke="rgb(0,0,0)" />
  <path d="M 500 310 L 510 310" fill="none" stroke="rgb(0,0,0)" />
  <path d="M 510 310 L 510 365" fill="none" stroke="rgb(0,0,0)" />
  <path d="M 510 365 L 520 365" fill="none" stroke="rgb(0,0,0)" />
  <path d="M 500 310 L 510 310" fill="none" stroke="rgb(0,0,0)" />
  <path d="M 510 310 L 510 420" fill="none" stroke="rgb(0,0,0)" />
  <path d="M 510 420 L 520 420" fill="none" stroke="rgb(0,0,0)" />
  <path d="M 500 310 L 510 310" fill="none" stroke="rgb(0,0,0)" />
  <path d="M 510 310 L 510 475" fill="none" stroke="rgb(0,0,0)" />
  <path d="M 510 475 L 520 475" fill="none" stroke="rgb(0,0,0)" />
  <path d="M 500 530 L 520 530" fill="none" stroke="rgb(0,0,0)" />
  <path d="M 500 530 L 510 530" fill="none" stroke="rgb(0,0,0)" />
  <path d="M 510 530 L 510 585" fill="none" stroke="rgb(0,0,0)" />
  <path d="M 510 585 L 520 585" fill="none" stroke="rgb(0,0,0)" />
  <path d="M 500 530 L 510 530" fill="none" stroke="rgb(0,0,0)" />
  <path d="M 510 530 L 510 640" fill="none" stroke="rgb(0,0,0)" />
  <path d="M 510 640 L 520 640" fill="none" stroke="rgb(0,0,0)" />
  <path d="M 500 530 L 510 530" fill="none" stroke="rgb(0,0,0)" />
  <path d="M 510 530 L 510 695" fill="none" stroke="rgb(0,0,0)" />
  <path d="M 510 695 L 520 695" fill="none" stroke="rgb(0,0,0)" />
  <path d="M 500 530 L 510 530" fill="none" stroke="rgb(0,0,0)" />
  <path d="M 510 530 L 510 750" fill="none" stroke="rgb(0,0,0)" />
  <path d="M 510 750 L 520 750" fill="none" stroke="rgb(0,0,0)" />
  <path d="M 500 530 L 510 530" fill="none" stroke="rgb(0,0,0)" />
  <path d="M 510 530 L 510 805" fill="none" stroke="rgb(0,0,0)" />
  <path d="M 510 805 L 520 805" fill="none" stroke="rgb(0,0,0)" />
  <path d="M 500 860 L 520 860" fill="none" stroke="rgb(0,0,0)" />
  <path d="M 500 860 L 510 860" fill="none" stroke="rgb(0,0,0)" />
  <path d="M 510 860 L 510 915" fill="none" stroke="rgb(0,0,0)" />
  <path d="M 510 915 L 520 915" fill="none" stroke="rgb(0,0,0)" />
  <path d="M 500 860 L 510 860" fill="none" stroke="rgb(0,0,0)" />
  <path d="M 510 860 L 510 970" fill="none" stroke="rgb(0,0,0)" />
  <path d="M 510 970 L 520 970" fill="none" stroke="rgb(0,0,0)" />
  <path d="M 500 860 L 510 860" fill="none" stroke="rgb(0,0,0)" />
  <path d="M 510 860 L 510 1025" fill="none" stroke="rgb(0,0,0)" />
  <path d="M 510 1025 L 520 1025" fill="none" stroke="rgb(0,0,0)" />
  <path d="M 500 860 L 510 860" fill="none" stroke="rgb(0,0,0)" />
  <path d="M 510 860 L 510 1080" fill="none" stroke="rgb(0,0,0)" />
  <path d="M 510 1080 L 520 1080" fill="none" stroke="rgb(0,0,0)" />
  <path d="M 500 860 L 510 860" fill="none" stroke="rgb(0,0,0)" />
  <path d="M 510 860 L 510 1135" fill="none" stroke="rgb(0,0,0)" />
  <path d="M 510 1135 L 520 1135" fill="none" stroke="rgb(0,0,0)" />
</svg>