<?xml version="1.0" encoding="UTF-8" standalone="no"?><svg xmlns="http://www.w3.org/2000/svg" xmlns:xlink="http://www.w3.org/1999/xlink" contentScriptType="application/ecmascript" contentStyleType="text/css" height="1204px" preserveAspectRatio="none" style="width:1099px;height:1204px;background:#FFFFFF;" version="1.1" viewBox="0 0 1099 1204" width="1099px" zoomAndPan="magnify"><defs><filter height="300%" id="fedpv92e5w2yc" width="300%" x="-1" y="-1"><feGaussianBlur result="blurOut" stdDeviation="2.0"/><feColorMatrix in="blurOut" result="blurOut2" type="matrix" values="0 0 0 0 0 0 0 0 0 0 0 0 0 0 0 0 0 0 .4 0"/><feOffset dx="4.0" dy="4.0" in="blurOut2" result="blurOut3"/><feBlend in="SourceGraphic" in2="blurOut3" mode="normal"/></filter></defs><g><rect fill="#F8F8F8" filter="url(#fedpv92e5w2yc)" height="36.2969" rx="12.5" ry="12.5" style="stroke:#383838;stroke-width:1.5;" width="118" x="10" y="582.9688"/><text fill="#000000" font-family="sans-serif" font-size="14" lengthAdjust="spacing" textLength="98" x="20" y="605.9639">悪魔ほむら派閥</text><rect fill="#F8F8F8" filter="url(#fedpv92e5w2yc)" height="36.2969" rx="12.5" ry="12.5" style="stroke:#383838;stroke-width:1.5;" width="272" x="178" y="132.5938"/><text fill="#000000" font-family="sans-serif" font-size="14" lengthAdjust="spacing" textLength="252" x="188" y="155.5889">悪魔ほむらは正しいよ（ほむら肯定派）</text><rect fill="#F8F8F8" filter="url(#fedpv92e5w2yc)" height="36.2969" rx="12.5" ry="12.5" style="stroke:#383838;stroke-width:1.5;" width="468" x="500" y="20"/><text fill="#000000" font-family="sans-serif" font-size="14" lengthAdjust="spacing" textLength="448" x="510" y="42.9951">まどかやさやかもなぎさも蘇って完璧な終幕だよ（ハッピーエンド派）</text><path d="M450,150.7422 L460,150.7422 C475,150.7422 475,38.1484 490,38.1484 L500,38.1484 " fill="none" style="stroke:#383838;stroke-width:1.0;"/><rect fill="#F8F8F8" filter="url(#fedpv92e5w2yc)" height="36.2969" rx="12.5" ry="12.5" style="stroke:#383838;stroke-width:1.5;" width="580" x="500" y="76.2969"/><text fill="#000000" font-family="sans-serif" font-size="14" lengthAdjust="spacing" textLength="560" x="510" y="99.292">本当はみんなと仲良くしたいのに関係を断ち切ったほむらは可哀想だよ（使い魔本音派）</text><path d="M450,150.7422 L460,150.7422 C475,150.7422 475,94.4453 490,94.4453 L500,94.4453 " fill="none" style="stroke:#383838;stroke-width:1.0;"/><rect fill="#F8F8F8" filter="url(#fedpv92e5w2yc)" height="36.2969" rx="12.5" ry="12.5" style="stroke:#383838;stroke-width:1.5;" width="454" x="500" y="132.5938"/><text fill="#000000" font-family="sans-serif" font-size="14" lengthAdjust="spacing" textLength="434" x="510" y="155.5889">初めてほむらが本音を見せたから許してあげようよ（ほむら同情派）</text><path d="M450,150.7422 L460,150.7422 C475,150.7422 475,150.7422 490,150.7422 L500,150.7422 " fill="none" style="stroke:#383838;stroke-width:1.0;"/><rect fill="#F8F8F8" filter="url(#fedpv92e5w2yc)" height="36.2969" rx="12.5" ry="12.5" style="stroke:#383838;stroke-width:1.5;" width="454" x="500" y="188.8906"/><text fill="#000000" font-family="sans-serif" font-size="14" lengthAdjust="spacing" textLength="434" x="510" y="211.8857">まどかの願いはほむらの想いを無視してたよ（ほむらの願い尊重派）</text><path d="M450,150.7422 L460,150.7422 C475,150.7422 475,207.0391 490,207.0391 L500,207.0391 " fill="none" style="stroke:#383838;stroke-width:1.0;"/><rect fill="#F8F8F8" filter="url(#fedpv92e5w2yc)" height="36.2969" rx="12.5" ry="12.5" style="stroke:#383838;stroke-width:1.5;" width="384" x="500" y="245.1875"/><text fill="#000000" font-family="sans-serif" font-size="14" lengthAdjust="spacing" textLength="364" x="510" y="268.1826">本編からしてこうなる事は自明だったよ（ほむら心情派）</text><path d="M450,150.7422 L460,150.7422 C475,150.7422 475,263.3359 490,263.3359 L500,263.3359 " fill="none" style="stroke:#383838;stroke-width:1.0;"/><path d="M128,601.1172 L138,601.1172 C153,601.1172 153,150.7422 168,150.7422 L178,150.7422 " fill="none" style="stroke:#383838;stroke-width:1.0;"/><rect fill="#F8F8F8" filter="url(#fedpv92e5w2yc)" height="36.2969" rx="12.5" ry="12.5" style="stroke:#383838;stroke-width:1.5;" width="230" x="178" y="385.9297"/><text fill="#000000" font-family="sans-serif" font-size="14" lengthAdjust="spacing" textLength="210" x="188" y="408.9248">QBが悪いんだよ（QB絶対悪派）</text><rect fill="#F8F8F8" filter="url(#fedpv92e5w2yc)" height="36.2969" rx="12.5" ry="12.5" style="stroke:#383838;stroke-width:1.5;" width="349" x="458" y="301.4844"/><text fill="#000000" font-family="sans-serif" font-size="14" lengthAdjust="spacing" textLength="329" x="468" y="324.4795">あんな実験をしたから自業自得だよ（QBざまぁ派）</text><path d="M408,404.0781 L418,404.0781 C433,404.0781 433,319.6328 448,319.6328 L458,319.6328 " fill="none" style="stroke:#383838;stroke-width:1.0;"/><rect fill="#F8F8F8" filter="url(#fedpv92e5w2yc)" height="36.2969" rx="12.5" ry="12.5" style="stroke:#383838;stroke-width:1.5;" width="489" x="458" y="357.7813"/><text fill="#000000" font-family="sans-serif" font-size="14" lengthAdjust="spacing" textLength="469" x="468" y="380.7764">あのまま円環されたら後々まどかはQBのものになってたよ（悪魔妥当派）</text><path d="M408,404.0781 L418,404.0781 C433,404.0781 433,375.9297 448,375.9297 L458,375.9297 " fill="none" style="stroke:#383838;stroke-width:1.0;"/><rect fill="#F8F8F8" filter="url(#fedpv92e5w2yc)" height="36.2969" rx="12.5" ry="12.5" style="stroke:#383838;stroke-width:1.5;" width="377" x="458" y="414.0781"/><text fill="#000000" font-family="sans-serif" font-size="14" lengthAdjust="spacing" textLength="357" x="468" y="437.0732">QBに感情が生まれてまた逆襲してくるよ（続編待望派）</text><path d="M408,404.0781 L418,404.0781 C433,404.0781 433,432.2266 448,432.2266 L458,432.2266 " fill="none" style="stroke:#383838;stroke-width:1.0;"/><rect fill="#F8F8F8" filter="url(#fedpv92e5w2yc)" height="36.2969" rx="12.5" ry="12.5" style="stroke:#383838;stroke-width:1.5;" width="290" x="458" y="470.375"/><text fill="#000000" font-family="sans-serif" font-size="14" lengthAdjust="spacing" textLength="270" x="468" y="493.3701">QBもいたぶられて喜んでるよ（ほむQ派）</text><path d="M408,404.0781 L418,404.0781 C433,404.0781 433,488.5234 448,488.5234 L458,488.5234 " fill="none" style="stroke:#383838;stroke-width:1.0;"/><path d="M128,601.1172 L138,601.1172 C153,601.1172 153,404.0781 168,404.0781 L178,404.0781 " fill="none" style="stroke:#383838;stroke-width:1.0;"/><rect fill="#F8F8F8" filter="url(#fedpv92e5w2yc)" height="36.2969" rx="12.5" ry="12.5" style="stroke:#383838;stroke-width:1.5;" width="300" x="178" y="667.4141"/><text fill="#000000" font-family="sans-serif" font-size="14" lengthAdjust="spacing" textLength="280" x="188" y="690.4092">悪魔ほむらは間違ってるよ（ほむら否定派）</text><rect fill="#F8F8F8" filter="url(#fedpv92e5w2yc)" height="36.2969" rx="12.5" ry="12.5" style="stroke:#383838;stroke-width:1.5;" width="538" x="528" y="526.6719"/><text fill="#000000" font-family="sans-serif" font-size="14" lengthAdjust="spacing" textLength="518" x="538" y="549.667">使い魔もいるしまどかは目覚めそうだし不安定な世界すぎるよ（バッドエンド派）</text><path d="M478,685.5625 L488,685.5625 C503,685.5625 503,544.8203 518,544.8203 L528,544.8203 " fill="none" style="stroke:#383838;stroke-width:1.0;"/><rect fill="#F8F8F8" filter="url(#fedpv92e5w2yc)" height="36.2969" rx="12.5" ry="12.5" style="stroke:#383838;stroke-width:1.5;" width="342" x="528" y="582.9688"/><text fill="#000000" font-family="sans-serif" font-size="14" lengthAdjust="spacing" textLength="322" x="538" y="605.9639">ほむら自身が幸せになってないよ（まどか視点派）</text><path d="M478,685.5625 L488,685.5625 C503,685.5625 503,601.1172 518,601.1172 L528,601.1172 " fill="none" style="stroke:#383838;stroke-width:1.0;"/><rect fill="#F8F8F8" filter="url(#fedpv92e5w2yc)" height="36.2969" rx="12.5" ry="12.5" style="stroke:#383838;stroke-width:1.5;" width="361" x="528" y="639.2656"/><text fill="#000000" font-family="sans-serif" font-size="14" lengthAdjust="spacing" textLength="341" x="538" y="662.2607">まどかの願いを否定してるよ（まどかの願い尊重派）;</text><path d="M478,685.5625 L488,685.5625 C503,685.5625 503,657.4141 518,657.4141 L528,657.4141 " fill="none" style="stroke:#383838;stroke-width:1.0;"/><rect fill="#F8F8F8" filter="url(#fedpv92e5w2yc)" height="36.2969" rx="12.5" ry="12.5" style="stroke:#383838;stroke-width:1.5;" width="207" x="528" y="695.5625"/><text fill="#000000" font-family="sans-serif" font-size="14" lengthAdjust="spacing" textLength="187" x="538" y="718.5576">エゴだよそれは（アムロ派）;</text><path d="M478,685.5625 L488,685.5625 C503,685.5625 503,713.7109 518,713.7109 L528,713.7109 " fill="none" style="stroke:#383838;stroke-width:1.0;"/><rect fill="#F8F8F8" filter="url(#fedpv92e5w2yc)" height="36.2969" rx="12.5" ry="12.5" style="stroke:#383838;stroke-width:1.5;" width="319" x="528" y="751.8594"/><text fill="#000000" font-family="sans-serif" font-size="14" lengthAdjust="spacing" textLength="299" x="538" y="774.8545">ほむらは気が狂ってるよ（ほむらヤンデレ派）;</text><path d="M478,685.5625 L488,685.5625 C503,685.5625 503,770.0078 518,770.0078 L528,770.0078 " fill="none" style="stroke:#383838;stroke-width:1.0;"/><rect fill="#F8F8F8" filter="url(#fedpv92e5w2yc)" height="36.2969" rx="12.5" ry="12.5" style="stroke:#383838;stroke-width:1.5;" width="417" x="528" y="808.1563"/><text fill="#000000" font-family="sans-serif" font-size="14" lengthAdjust="spacing" textLength="397" x="538" y="831.1514">唯一敵対しているさやかに倒して欲しいんだよ（さやほむ派）;</text><path d="M478,685.5625 L488,685.5625 C503,685.5625 503,826.3047 518,826.3047 L528,826.3047 " fill="none" style="stroke:#383838;stroke-width:1.0;"/><path d="M128,601.1172 L138,601.1172 C153,601.1172 153,685.5625 168,685.5625 L178,685.5625 " fill="none" style="stroke:#383838;stroke-width:1.0;"/><rect fill="#F8F8F8" filter="url(#fedpv92e5w2yc)" height="36.2969" rx="12.5" ry="12.5" style="stroke:#383838;stroke-width:1.5;" width="258" x="178" y="1005.1953"/><text fill="#000000" font-family="sans-serif" font-size="14" lengthAdjust="spacing" textLength="238" x="188" y="1028.1904">悪魔ほむらは可愛いよ（悪魔崇拝派）</text><rect fill="#F8F8F8" filter="url(#fedpv92e5w2yc)" height="36.2969" rx="12.5" ry="12.5" style="stroke:#383838;stroke-width:1.5;" width="487" x="486" y="864.4531"/><text fill="#000000" font-family="sans-serif" font-size="14" lengthAdjust="spacing" textLength="467" x="496" y="887.4482">全員救ったほむらは悪魔じゃなくて女神だよ（アルティメットほむら派）;</text><path d="M436,1023.3438 L446,1023.3438 C461,1023.3438 461,882.6016 476,882.6016 L486,882.6016 " fill="none" style="stroke:#383838;stroke-width:1.0;"/><rect fill="#F8F8F8" filter="url(#fedpv92e5w2yc)" height="36.2969" rx="12.5" ry="12.5" style="stroke:#383838;stroke-width:1.5;" width="319" x="486" y="920.75"/><text fill="#000000" font-family="sans-serif" font-size="14" lengthAdjust="spacing" textLength="299" x="496" y="943.7451">記憶改竄とか凄いよ最強だよ（悪魔万能説派）;</text><path d="M436,1023.3438 L446,1023.3438 C461,1023.3438 461,938.8984 476,938.8984 L486,938.8984 " fill="none" style="stroke:#383838;stroke-width:1.0;"/><rect fill="#F8F8F8" filter="url(#fedpv92e5w2yc)" height="36.2969" rx="12.5" ry="12.5" style="stroke:#383838;stroke-width:1.5;" width="354" x="486" y="977.0469"/><text fill="#000000" font-family="sans-serif" font-size="14" lengthAdjust="spacing" textLength="334" x="496" y="1000.042">指先でつんつんされたいよ（QBちょっと変われ派）;</text><path d="M436,1023.3438 L446,1023.3438 C461,1023.3438 461,995.1953 476,995.1953 L486,995.1953 " fill="none" style="stroke:#383838;stroke-width:1.0;"/><rect fill="#F8F8F8" filter="url(#fedpv92e5w2yc)" height="36.2969" rx="12.5" ry="12.5" style="stroke:#383838;stroke-width:1.5;" width="375" x="486" y="1033.3438"/><text fill="#000000" font-family="sans-serif" font-size="14" lengthAdjust="spacing" textLength="355" x="496" y="1056.3389">悪魔ぶってるほむらちゃん可愛いよ（私って悪魔ね派）;</text><path d="M436,1023.3438 L446,1023.3438 C461,1023.3438 461,1051.4922 476,1051.4922 L486,1051.4922 " fill="none" style="stroke:#383838;stroke-width:1.0;"/><rect fill="#F8F8F8" filter="url(#fedpv92e5w2yc)" height="36.2969" rx="12.5" ry="12.5" style="stroke:#383838;stroke-width:1.5;" width="459" x="486" y="1089.6406"/><text fill="#000000" font-family="sans-serif" font-size="14" lengthAdjust="spacing" textLength="439" x="496" y="1112.6357">毎回まどかを抱きしめたい口実を作りたかったんだよ（ほむまど派）;</text><path d="M436,1023.3438 L446,1023.3438 C461,1023.3438 461,1107.7891 476,1107.7891 L486,1107.7891 " fill="none" style="stroke:#383838;stroke-width:1.0;"/><rect fill="#F8F8F8" filter="url(#fedpv92e5w2yc)" height="36.2969" rx="12.5" ry="12.5" style="stroke:#383838;stroke-width:1.5;" width="417" x="486" y="1145.9375"/><text fill="#000000" font-family="sans-serif" font-size="14" lengthAdjust="spacing" textLength="397" x="496" y="1168.9326">悪魔になってもまどかの前ではヘタレなんだよ（まどほむ派）;</text><path d="M436,1023.3438 L446,1023.3438 C461,1023.3438 461,1164.0859 476,1164.0859 L486,1164.0859 " fill="none" style="stroke:#383838;stroke-width:1.0;"/><path d="M128,601.1172 L138,601.1172 C153,601.1172 153,1023.3438 168,1023.3438 L178,1023.3438 " fill="none" style="stroke:#383838;stroke-width:1.0;"/><rect fill="#F8F8F8" filter="url(#fedpv92e5w2yc)" height="36.2969" rx="12.5" ry="12.5" style="stroke:#383838;stroke-width:1.5;" width="193" x="178" y="1061.4922"/><text fill="#000000" font-family="sans-serif" font-size="14" lengthAdjust="spacing" textLength="173" x="188" y="1084.4873">愛よ（愛なら仕方ない派）;</text><path d="M128,601.1172 L138,601.1172 C153,601.1172 153,1079.6406 168,1079.6406 L178,1079.6406 " fill="none" style="stroke:#383838;stroke-width:1.0;"/><!--MD5=[15bbdcd0b7b02d97ab4bd45134cbf9c7]
@startmindmap
skinparam monochrome true
* 悪魔ほむら派閥
** 悪魔ほむらは正しいよ（ほむら肯定派）
*** まどかやさやかもなぎさも蘇って完璧な終幕だよ（ハッピーエンド派）
*** 本当はみんなと仲良くしたいのに関係を断ち切ったほむらは可哀想だよ（使い魔本音派）
*** 初めてほむらが本音を見せたから許してあげようよ（ほむら同情派）
*** まどかの願いはほむらの想いを無視してたよ（ほむらの願い尊重派）
*** 本編からしてこうなる事は自明だったよ（ほむら心情派）
** QBが悪いんだよ（QB絶対悪派）
*** あんな実験をしたから自業自得だよ（QBざまぁ派）
*** あのまま円環されたら後々まどかはQBのものになってたよ（悪魔妥当派）
*** QBに感情が生まれてまた逆襲してくるよ（続編待望派）
*** QBもいたぶられて喜んでるよ（ほむQ派）
** 悪魔ほむらは間違ってるよ（ほむら否定派）
*** 使い魔もいるしまどかは目覚めそうだし不安定な世界すぎるよ（バッドエンド派）
*** ほむら自身が幸せになってないよ（まどか視点派）
*** まどかの願いを否定してるよ（まどかの願い尊重派）;
*** エゴだよそれは（アムロ派）;
*** ほむらは気が狂ってるよ（ほむらヤンデレ派）;
*** 唯一敵対しているさやかに倒して欲しいんだよ（さやほむ派）;
** 悪魔ほむらは可愛いよ（悪魔崇拝派）
*** 全員救ったほむらは悪魔じゃなくて女神だよ（アルティメットほむら派）;
*** 記憶改竄とか凄いよ最強だよ（悪魔万能説派）;
*** 指先でつんつんされたいよ（QBちょっと変われ派）;
*** 悪魔ぶってるほむらちゃん可愛いよ（私って悪魔ね派）;
*** 毎回まどかを抱きしめたい口実を作りたかったんだよ（ほむまど派）;
*** 悪魔になってもまどかの前ではヘタレなんだよ（まどほむ派）;
** 愛よ（愛なら仕方ない派）;
@endmindmap

PlantUML version 1.2021.11beta6(Unknown compile time)
(GPL source distribution)
Java Runtime: Java(TM) SE Runtime Environment
JVM: Java HotSpot(TM) 64-Bit Server VM
Default Encoding: UTF-8
Language: en
Country: US
--></g></svg>